<mxfile host="app.diagrams.net" agent="Mozilla/5.0 (Windows NT 10.0; Win64; x64) AppleWebKit/537.36 (KHTML, like Gecko) Chrome/131.0.0.0 Safari/537.36" version="25.0.3">
  <diagram name="Page-1" id="4ApiDYRiB2tYflTRmhtf">
    <mxGraphModel dx="1909" dy="949" grid="1" gridSize="10" guides="1" tooltips="1" connect="1" arrows="1" fold="1" page="1" pageScale="1" pageWidth="827" pageHeight="1169" math="0" shadow="0">
      <root>
        <mxCell id="0" />
        <mxCell id="1" parent="0" />
        <mxCell id="EXn7Ec1JPXeKdipzZl5X-10" value="" style="edgeStyle=orthogonalEdgeStyle;rounded=0;orthogonalLoop=1;jettySize=auto;html=1;" edge="1" parent="1" source="EXn7Ec1JPXeKdipzZl5X-1" target="EXn7Ec1JPXeKdipzZl5X-2">
          <mxGeometry relative="1" as="geometry" />
        </mxCell>
        <mxCell id="EXn7Ec1JPXeKdipzZl5X-1" value="start" style="ellipse;whiteSpace=wrap;html=1;" vertex="1" parent="1">
          <mxGeometry x="370" y="30" width="120" height="60" as="geometry" />
        </mxCell>
        <mxCell id="EXn7Ec1JPXeKdipzZl5X-4" style="edgeStyle=orthogonalEdgeStyle;rounded=0;orthogonalLoop=1;jettySize=auto;html=1;entryX=0.5;entryY=0;entryDx=0;entryDy=0;" edge="1" parent="1" target="EXn7Ec1JPXeKdipzZl5X-3">
          <mxGeometry relative="1" as="geometry">
            <mxPoint x="430" y="220" as="sourcePoint" />
          </mxGeometry>
        </mxCell>
        <mxCell id="EXn7Ec1JPXeKdipzZl5X-12" value="" style="edgeStyle=orthogonalEdgeStyle;rounded=0;orthogonalLoop=1;jettySize=auto;html=1;" edge="1" parent="1" source="EXn7Ec1JPXeKdipzZl5X-2" target="EXn7Ec1JPXeKdipzZl5X-11">
          <mxGeometry relative="1" as="geometry" />
        </mxCell>
        <mxCell id="EXn7Ec1JPXeKdipzZl5X-2" value="input num" style="shape=parallelogram;perimeter=parallelogramPerimeter;whiteSpace=wrap;html=1;fixedSize=1;" vertex="1" parent="1">
          <mxGeometry x="370" y="130" width="120" height="40" as="geometry" />
        </mxCell>
        <mxCell id="EXn7Ec1JPXeKdipzZl5X-6" value="" style="edgeStyle=orthogonalEdgeStyle;rounded=0;orthogonalLoop=1;jettySize=auto;html=1;" edge="1" parent="1" source="EXn7Ec1JPXeKdipzZl5X-3" target="EXn7Ec1JPXeKdipzZl5X-5">
          <mxGeometry relative="1" as="geometry" />
        </mxCell>
        <mxCell id="EXn7Ec1JPXeKdipzZl5X-3" value="" style="ellipse;whiteSpace=wrap;html=1;aspect=fixed;" vertex="1" parent="1">
          <mxGeometry x="415" y="250" width="30" height="30" as="geometry" />
        </mxCell>
        <mxCell id="EXn7Ec1JPXeKdipzZl5X-8" style="edgeStyle=orthogonalEdgeStyle;rounded=0;orthogonalLoop=1;jettySize=auto;html=1;exitX=1;exitY=0.5;exitDx=0;exitDy=0;entryX=0.5;entryY=0;entryDx=0;entryDy=0;" edge="1" parent="1" source="EXn7Ec1JPXeKdipzZl5X-5" target="EXn7Ec1JPXeKdipzZl5X-7">
          <mxGeometry relative="1" as="geometry" />
        </mxCell>
        <mxCell id="EXn7Ec1JPXeKdipzZl5X-23" style="edgeStyle=orthogonalEdgeStyle;rounded=0;orthogonalLoop=1;jettySize=auto;html=1;exitX=0.5;exitY=1;exitDx=0;exitDy=0;" edge="1" parent="1" source="EXn7Ec1JPXeKdipzZl5X-5" target="EXn7Ec1JPXeKdipzZl5X-20">
          <mxGeometry relative="1" as="geometry" />
        </mxCell>
        <mxCell id="EXn7Ec1JPXeKdipzZl5X-5" value="num == 0" style="rhombus;whiteSpace=wrap;html=1;" vertex="1" parent="1">
          <mxGeometry x="342.5" y="310" width="175" height="80" as="geometry" />
        </mxCell>
        <mxCell id="EXn7Ec1JPXeKdipzZl5X-13" value="" style="edgeStyle=orthogonalEdgeStyle;rounded=0;orthogonalLoop=1;jettySize=auto;html=1;" edge="1" parent="1" source="EXn7Ec1JPXeKdipzZl5X-7" target="EXn7Ec1JPXeKdipzZl5X-9">
          <mxGeometry relative="1" as="geometry" />
        </mxCell>
        <mxCell id="EXn7Ec1JPXeKdipzZl5X-7" value="ouput num" style="shape=parallelogram;perimeter=parallelogramPerimeter;whiteSpace=wrap;html=1;fixedSize=1;" vertex="1" parent="1">
          <mxGeometry x="550" y="380" width="140" height="40" as="geometry" />
        </mxCell>
        <mxCell id="EXn7Ec1JPXeKdipzZl5X-15" value="" style="edgeStyle=orthogonalEdgeStyle;rounded=0;orthogonalLoop=1;jettySize=auto;html=1;" edge="1" parent="1" source="EXn7Ec1JPXeKdipzZl5X-9">
          <mxGeometry relative="1" as="geometry">
            <mxPoint x="620" y="530" as="targetPoint" />
          </mxGeometry>
        </mxCell>
        <mxCell id="EXn7Ec1JPXeKdipzZl5X-9" value="sum = sum * num" style="rounded=0;whiteSpace=wrap;html=1;" vertex="1" parent="1">
          <mxGeometry x="560" y="460" width="120" height="30" as="geometry" />
        </mxCell>
        <mxCell id="EXn7Ec1JPXeKdipzZl5X-11" value="sum = 1" style="shape=parallelogram;perimeter=parallelogramPerimeter;whiteSpace=wrap;html=1;fixedSize=1;" vertex="1" parent="1">
          <mxGeometry x="370" y="190" width="120" height="30" as="geometry" />
        </mxCell>
        <mxCell id="EXn7Ec1JPXeKdipzZl5X-17" style="edgeStyle=orthogonalEdgeStyle;rounded=0;orthogonalLoop=1;jettySize=auto;html=1;exitX=0.5;exitY=1;exitDx=0;exitDy=0;entryX=1;entryY=0.5;entryDx=0;entryDy=0;" edge="1" parent="1" source="EXn7Ec1JPXeKdipzZl5X-16" target="EXn7Ec1JPXeKdipzZl5X-3">
          <mxGeometry relative="1" as="geometry">
            <Array as="points">
              <mxPoint x="620" y="580" />
              <mxPoint x="750" y="580" />
              <mxPoint x="750" y="265" />
            </Array>
          </mxGeometry>
        </mxCell>
        <mxCell id="EXn7Ec1JPXeKdipzZl5X-16" value="num = num - 1" style="rounded=0;whiteSpace=wrap;html=1;" vertex="1" parent="1">
          <mxGeometry x="560" y="530" width="120" height="30" as="geometry" />
        </mxCell>
        <mxCell id="EXn7Ec1JPXeKdipzZl5X-18" value="false" style="text;html=1;align=center;verticalAlign=middle;whiteSpace=wrap;rounded=0;" vertex="1" parent="1">
          <mxGeometry x="500" y="320" width="60" height="30" as="geometry" />
        </mxCell>
        <mxCell id="EXn7Ec1JPXeKdipzZl5X-19" value="true" style="text;html=1;align=center;verticalAlign=middle;whiteSpace=wrap;rounded=0;" vertex="1" parent="1">
          <mxGeometry x="430" y="390" width="60" height="30" as="geometry" />
        </mxCell>
        <mxCell id="EXn7Ec1JPXeKdipzZl5X-24" value="" style="edgeStyle=orthogonalEdgeStyle;rounded=0;orthogonalLoop=1;jettySize=auto;html=1;" edge="1" parent="1" source="EXn7Ec1JPXeKdipzZl5X-20" target="EXn7Ec1JPXeKdipzZl5X-22">
          <mxGeometry relative="1" as="geometry" />
        </mxCell>
        <mxCell id="EXn7Ec1JPXeKdipzZl5X-20" value="output sum" style="shape=parallelogram;perimeter=parallelogramPerimeter;whiteSpace=wrap;html=1;fixedSize=1;" vertex="1" parent="1">
          <mxGeometry x="360" y="450" width="140" height="40" as="geometry" />
        </mxCell>
        <mxCell id="EXn7Ec1JPXeKdipzZl5X-22" value="end" style="ellipse;whiteSpace=wrap;html=1;" vertex="1" parent="1">
          <mxGeometry x="370" y="550" width="120" height="60" as="geometry" />
        </mxCell>
      </root>
    </mxGraphModel>
  </diagram>
</mxfile>
